<mxfile host="app.diagrams.net" modified="2024-03-10T17:44:52.893Z" agent="Mozilla/5.0 (Windows NT 10.0; Win64; x64) AppleWebKit/537.36 (KHTML, like Gecko) Chrome/122.0.0.0 Safari/537.36 Edg/122.0.0.0" etag="uNZWkz8TIrD5gNBZnmp4" version="21.2.9" type="device">
  <diagram id="C5RBs43oDa-KdzZeNtuy" name="Page-1">
    <mxGraphModel dx="623" dy="436" grid="1" gridSize="10" guides="1" tooltips="1" connect="1" arrows="1" fold="1" page="1" pageScale="1" pageWidth="827" pageHeight="1169" math="0" shadow="0">
      <root>
        <mxCell id="WIyWlLk6GJQsqaUBKTNV-0" />
        <mxCell id="WIyWlLk6GJQsqaUBKTNV-1" parent="WIyWlLk6GJQsqaUBKTNV-0" />
        <mxCell id="E4ncsNT9kVerMbYPsn5w-15" value="&lt;p style=&quot;margin:0px;margin-top:4px;text-align:center;&quot;&gt;&lt;b&gt;Graph&lt;/b&gt;&lt;/p&gt;&lt;hr size=&quot;1&quot;&gt;&lt;p style=&quot;margin:0px;margin-left:4px;&quot;&gt;+ field: Type&lt;/p&gt;&lt;hr size=&quot;1&quot;&gt;&lt;p style=&quot;margin:0px;margin-left:4px;&quot;&gt;+ CURD()&lt;/p&gt;" style="verticalAlign=top;align=left;overflow=fill;fontSize=12;fontFamily=Helvetica;html=1;whiteSpace=wrap;" vertex="1" parent="WIyWlLk6GJQsqaUBKTNV-1">
          <mxGeometry x="20" y="105" width="160" height="90" as="geometry" />
        </mxCell>
        <mxCell id="E4ncsNT9kVerMbYPsn5w-16" value="&lt;p style=&quot;margin:0px;margin-top:4px;text-align:center;&quot;&gt;&lt;b&gt;Abstract Algorithm&lt;/b&gt;&lt;/p&gt;&lt;hr size=&quot;1&quot;&gt;&lt;p style=&quot;margin:0px;margin-left:4px;&quot;&gt;+ static Algorithm&lt;/p&gt;&lt;hr size=&quot;1&quot;&gt;&lt;p style=&quot;margin:0px;margin-left:4px;&quot;&gt;+ method(): Type&lt;/p&gt;" style="verticalAlign=top;align=left;overflow=fill;fontSize=12;fontFamily=Helvetica;html=1;whiteSpace=wrap;" vertex="1" parent="WIyWlLk6GJQsqaUBKTNV-1">
          <mxGeometry x="310" y="40" width="160" height="220" as="geometry" />
        </mxCell>
        <mxCell id="E4ncsNT9kVerMbYPsn5w-17" value="&lt;p style=&quot;margin:0px;margin-top:4px;text-align:center;&quot;&gt;&lt;b&gt;Graph Window&lt;/b&gt;&lt;/p&gt;&lt;hr size=&quot;1&quot;&gt;&lt;p style=&quot;margin:0px;margin-left:4px;&quot;&gt;+ field: Type&lt;/p&gt;&lt;hr size=&quot;1&quot;&gt;&lt;p style=&quot;margin:0px;margin-left:4px;&quot;&gt;+ method(): Type&lt;/p&gt;" style="verticalAlign=top;align=left;overflow=fill;fontSize=12;fontFamily=Helvetica;html=1;whiteSpace=wrap;" vertex="1" parent="WIyWlLk6GJQsqaUBKTNV-1">
          <mxGeometry x="20" y="270" width="160" height="90" as="geometry" />
        </mxCell>
        <mxCell id="E4ncsNT9kVerMbYPsn5w-18" value="&lt;p style=&quot;margin:0px;margin-top:4px;text-align:center;&quot;&gt;&lt;b&gt;Actual Algorithm&lt;br&gt;KCore / KClique&lt;/b&gt;&lt;/p&gt;&lt;hr size=&quot;1&quot;&gt;&lt;p style=&quot;margin:0px;margin-left:4px;&quot;&gt;+ graph: Graph&lt;/p&gt;&lt;hr size=&quot;1&quot;&gt;&lt;p style=&quot;margin:0px;margin-left:4px;&quot;&gt;+ CURD on graph&lt;/p&gt;" style="verticalAlign=top;align=left;overflow=fill;fontSize=12;fontFamily=Helvetica;html=1;whiteSpace=wrap;" vertex="1" parent="WIyWlLk6GJQsqaUBKTNV-1">
          <mxGeometry x="310" y="350" width="160" height="130" as="geometry" />
        </mxCell>
        <mxCell id="E4ncsNT9kVerMbYPsn5w-19" value="" style="endArrow=block;dashed=1;endFill=0;endSize=12;html=1;rounded=0;exitX=0.5;exitY=0;exitDx=0;exitDy=0;" edge="1" parent="WIyWlLk6GJQsqaUBKTNV-1" source="E4ncsNT9kVerMbYPsn5w-18">
          <mxGeometry width="160" relative="1" as="geometry">
            <mxPoint x="230" y="260" as="sourcePoint" />
            <mxPoint x="390" y="260" as="targetPoint" />
          </mxGeometry>
        </mxCell>
        <mxCell id="E4ncsNT9kVerMbYPsn5w-20" value="" style="endArrow=open;endFill=1;endSize=12;html=1;rounded=0;exitX=0;exitY=0.5;exitDx=0;exitDy=0;entryX=1;entryY=0.5;entryDx=0;entryDy=0;" edge="1" parent="WIyWlLk6GJQsqaUBKTNV-1" source="E4ncsNT9kVerMbYPsn5w-16" target="E4ncsNT9kVerMbYPsn5w-15">
          <mxGeometry width="160" relative="1" as="geometry">
            <mxPoint x="230" y="260" as="sourcePoint" />
            <mxPoint x="390" y="260" as="targetPoint" />
          </mxGeometry>
        </mxCell>
        <mxCell id="E4ncsNT9kVerMbYPsn5w-23" value="" style="endArrow=open;endFill=1;endSize=12;html=1;rounded=0;exitX=0.5;exitY=0;exitDx=0;exitDy=0;entryX=0.5;entryY=1;entryDx=0;entryDy=0;" edge="1" parent="WIyWlLk6GJQsqaUBKTNV-1" source="E4ncsNT9kVerMbYPsn5w-17" target="E4ncsNT9kVerMbYPsn5w-15">
          <mxGeometry width="160" relative="1" as="geometry">
            <mxPoint x="60" y="240" as="sourcePoint" />
            <mxPoint x="220" y="240" as="targetPoint" />
          </mxGeometry>
        </mxCell>
        <mxCell id="E4ncsNT9kVerMbYPsn5w-24" value="" style="endArrow=open;endFill=1;endSize=12;html=1;rounded=0;" edge="1" parent="WIyWlLk6GJQsqaUBKTNV-1" source="E4ncsNT9kVerMbYPsn5w-16">
          <mxGeometry width="160" relative="1" as="geometry">
            <mxPoint x="230" y="260" as="sourcePoint" />
            <mxPoint x="390" y="260" as="targetPoint" />
          </mxGeometry>
        </mxCell>
        <mxCell id="E4ncsNT9kVerMbYPsn5w-25" value="" style="endArrow=open;endFill=1;endSize=12;html=1;rounded=0;entryX=1;entryY=0.5;entryDx=0;entryDy=0;" edge="1" parent="WIyWlLk6GJQsqaUBKTNV-1" target="E4ncsNT9kVerMbYPsn5w-18">
          <mxGeometry width="160" relative="1" as="geometry">
            <mxPoint x="470" y="80" as="sourcePoint" />
            <mxPoint x="490" y="280" as="targetPoint" />
            <Array as="points">
              <mxPoint x="550" y="80" />
              <mxPoint x="550" y="415" />
            </Array>
          </mxGeometry>
        </mxCell>
        <mxCell id="E4ncsNT9kVerMbYPsn5w-27" value="CURD on graph" style="swimlane;startSize=20;horizontal=1;childLayout=flowLayout;flowOrientation=north;resizable=0;interRankCellSpacing=50;containerType=tree;fontSize=12;" vertex="1" parent="WIyWlLk6GJQsqaUBKTNV-1">
          <mxGeometry x="20" y="540" width="270" height="420" as="geometry" />
        </mxCell>
        <mxCell id="E4ncsNT9kVerMbYPsn5w-28" value="access Abstract Algorithm" style="whiteSpace=wrap;html=1;" vertex="1" parent="E4ncsNT9kVerMbYPsn5w-27">
          <mxGeometry x="20.625" y="40" width="228.75" height="40" as="geometry" />
        </mxCell>
        <mxCell id="E4ncsNT9kVerMbYPsn5w-29" value="the current algorithm stored in abstract class call the CURD on graph class" style="whiteSpace=wrap;html=1;" vertex="1" parent="E4ncsNT9kVerMbYPsn5w-27">
          <mxGeometry x="20" y="130" width="230" height="70" as="geometry" />
        </mxCell>
        <mxCell id="E4ncsNT9kVerMbYPsn5w-30" value="" style="html=1;rounded=1;curved=0;sourcePerimeterSpacing=0;targetPerimeterSpacing=0;startSize=6;endSize=6;noEdgeStyle=1;orthogonal=1;" edge="1" parent="E4ncsNT9kVerMbYPsn5w-27" source="E4ncsNT9kVerMbYPsn5w-28" target="E4ncsNT9kVerMbYPsn5w-29">
          <mxGeometry relative="1" as="geometry">
            <Array as="points">
              <mxPoint x="135" y="92" />
              <mxPoint x="135" y="118" />
            </Array>
          </mxGeometry>
        </mxCell>
        <mxCell id="E4ncsNT9kVerMbYPsn5w-47" value="" style="html=1;rounded=1;curved=0;sourcePerimeterSpacing=0;targetPerimeterSpacing=0;startSize=6;endSize=6;noEdgeStyle=1;orthogonal=1;" edge="1" target="E4ncsNT9kVerMbYPsn5w-48" source="E4ncsNT9kVerMbYPsn5w-29" parent="E4ncsNT9kVerMbYPsn5w-27">
          <mxGeometry relative="1" as="geometry">
            <mxPoint x="650" y="1540" as="sourcePoint" />
            <Array as="points">
              <mxPoint x="135" y="212" />
              <mxPoint x="135" y="238" />
            </Array>
          </mxGeometry>
        </mxCell>
        <mxCell id="E4ncsNT9kVerMbYPsn5w-48" value="graph class check if the CURD can be done and return bool to current algorithm" style="whiteSpace=wrap;html=1;" vertex="1" parent="E4ncsNT9kVerMbYPsn5w-27">
          <mxGeometry x="20" y="250" width="230" height="50" as="geometry" />
        </mxCell>
        <mxCell id="E4ncsNT9kVerMbYPsn5w-49" value="" style="html=1;rounded=1;curved=0;sourcePerimeterSpacing=0;targetPerimeterSpacing=0;startSize=6;endSize=6;noEdgeStyle=1;orthogonal=1;" edge="1" target="E4ncsNT9kVerMbYPsn5w-50" source="E4ncsNT9kVerMbYPsn5w-48" parent="E4ncsNT9kVerMbYPsn5w-27">
          <mxGeometry relative="1" as="geometry">
            <mxPoint x="335" y="1100" as="sourcePoint" />
            <Array as="points">
              <mxPoint x="135" y="312" />
              <mxPoint x="135" y="338" />
            </Array>
          </mxGeometry>
        </mxCell>
        <mxCell id="E4ncsNT9kVerMbYPsn5w-50" value="if success, current algorithm modifies its index structure" style="whiteSpace=wrap;html=1;" vertex="1" parent="E4ncsNT9kVerMbYPsn5w-27">
          <mxGeometry x="20" y="350" width="230" height="50" as="geometry" />
        </mxCell>
      </root>
    </mxGraphModel>
  </diagram>
</mxfile>
